<?xml version="1.0" standalone="no"?>
<!DOCTYPE svg PUBLIC "-//W3C//DTD SVG 20010904//EN"
 "http://www.w3.org/TR/2001/REC-SVG-20010904/DTD/svg10.dtd">
<svg version="1.0" xmlns="http://www.w3.org/2000/svg"
 width="300.000000pt" height="300.000000pt" viewBox="0 0 300.000000 300.000000"
 preserveAspectRatio="xMidYMid meet">
<metadata>
Created by potrace 1.14, written by Peter Selinger 2001-2017
</metadata>
<g transform="translate(0.000000,300.000000) scale(0.100000,-0.100000)"
fill="#000000" stroke="none">
<path d="M1938 2717 c6 -141 -46 -264 -145 -343 -26 -21 -66 -54 -88 -75 -30
-28 -52 -38 -88 -43 -26 -3 -61 -13 -77 -21 -27 -14 -35 -14 -90 5 -32 11 -67
20 -75 20 -32 0 -214 164 -249 224 -35 60 -56 140 -56 215 l-1 66 -20 -37
c-37 -72 -52 -155 -46 -260 4 -60 2 -98 -3 -98 -6 0 -10 -7 -10 -16 0 -22 46
-116 70 -141 27 -29 25 -43 -4 -43 -14 0 -28 -5 -31 -10 -7 -11 48 -91 89
-129 35 -32 33 -42 -6 -34 l-33 6 34 -36 c29 -30 32 -39 21 -52 -7 -8 -21 -15
-32 -15 -53 0 -113 -58 -124 -119 -4 -20 -12 -43 -19 -51 -25 -30 -38 -95 -26
-132 9 -28 8 -40 -8 -71 -26 -52 -34 -108 -22 -153 9 -33 8 -40 -14 -66 -44
-52 -46 -158 -5 -239 18 -34 20 -46 11 -66 -28 -60 0 -143 73 -221 32 -34 46
-58 46 -77 0 -49 39 -113 106 -173 l65 -59 -53 -36 c-60 -41 -145 -73 -221
-83 -82 -11 -89 -44 -9 -44 109 1 267 44 313 86 15 14 19 13 43 -11 29 -29
125 -75 157 -75 11 0 32 -12 46 -26 30 -30 30 -29 -38 -76 -24 -17 -24 -17 11
-7 19 6 46 15 60 20 19 7 36 5 63 -6 51 -21 68 -19 29 5 -41 25 -49 46 -27 70
22 25 62 26 89 2 21 -17 21 -17 2 5 -18 22 -18 23 8 33 15 5 30 10 34 10 4 0
24 11 45 25 27 19 37 33 38 53 0 22 15 37 78 83 94 68 131 114 139 171 4 32
18 58 55 103 80 96 104 168 76 229 -9 19 -9 29 0 39 15 19 39 103 42 147 3 60
0 76 -23 106 -20 24 -23 41 -23 109 0 65 -4 87 -23 119 -20 34 -21 43 -11 73
13 39 -2 113 -27 134 -8 6 -14 20 -14 31 0 29 -25 83 -50 106 -12 11 -40 24
-61 27 -60 10 -68 29 -31 68 18 18 32 35 32 38 0 3 -15 3 -32 1 l-33 -5 48 50
c48 50 87 101 87 116 0 4 -16 7 -35 7 -19 0 -35 3 -35 6 0 3 11 20 25 36 32
38 60 93 70 135 6 29 4 32 -11 26 -14 -5 -16 -2 -11 23 27 121 16 227 -33 331
-16 35 -30 63 -32 63 -2 0 -2 -33 0 -73z m-638 -1017 c0 -5 -4 -10 -10 -10 -5
0 -10 5 -10 10 0 6 5 10 10 10 6 0 10 -4 10 -10z m440 0 c0 -5 -7 -10 -15 -10
-8 0 -15 5 -15 10 0 6 7 10 15 10 8 0 15 -4 15 -10z m-470 -64 c0 -7 -11 -43
-25 -80 -48 -129 -60 -200 -60 -371 0 -200 19 -289 97 -457 l41 -87 -24 -36
c-13 -19 -27 -35 -30 -35 -12 0 -87 176 -107 250 -71 260 -51 536 55 772 24
53 53 78 53 44z m531 -53 c64 -143 90 -278 90 -468 -1 -189 -36 -338 -117
-495 -46 -88 -167 -260 -183 -260 -6 0 -22 16 -37 35 l-26 35 45 50 c164 182
261 438 261 690 0 148 -15 241 -59 370 -19 52 -31 98 -29 102 12 19 27 3 55
-59z m-261 -430 c35 -55 39 -83 11 -83 -18 0 -16 -6 15 -57 39 -64 84 -197 84
-245 l0 -31 -23 21 c-13 12 -26 22 -29 22 -3 0 -9 -26 -13 -57 -13 -110 -55
-243 -77 -243 -24 0 -77 180 -78 263 0 25 -5 37 -14 37 -10 0 -15 16 -18 57
-3 62 19 133 60 191 26 35 27 42 8 42 -29 0 -27 22 5 76 18 29 35 54 36 54 2
0 17 -21 33 -47z m-121 -648 c33 -41 61 -78 61 -82 -1 -5 -12 -21 -26 -38
l-25 -30 -49 55 c-73 81 -76 90 -48 133 13 20 23 36 24 37 1 0 29 -34 63 -75z
m127 -136 l29 -30 -34 -31 -33 -30 -34 33 -34 33 27 28 c34 35 42 35 79 -3z"/>
</g>
</svg>
